<svg>
    <symbol id="map-mark" xmlns="http://www.w3.org/2000/svg" enable-background="new 0 0 56.068 100" xml:space="preserve" viewBox="0 0 56.068 100" > <path d="m28.034 0c-15.482 0-28.034 12.552-28.034 28.034s28.034 71.966 28.034 71.966 28.034-56.483 28.034-71.966-12.551-28.034-28.034-28.034zm0 40.477c-6.871 0-12.442-5.572-12.442-12.442 0-6.872 5.571-12.442 12.442-12.442 6.872 0 12.442 5.57 12.442 12.442 0.001 6.87-5.57 12.442-12.442 12.442z"/> </symbol>
    <symbol id="telegram" width="35px" height="35px" viewBox="0 0 24 24" xmlns="http://www.w3.org/2000/svg" xml:space="preserve" style="fill-rule:evenodd;clip-rule:evenodd;stroke-linejoin:round;stroke-miterlimit:1.41421;"><path d="M12,0c-6.626,0 -12,5.372 -12,12c0,6.627 5.374,12 12,12c6.627,0 12,-5.373 12,-12c0,-6.628 -5.373,-12 -12,-12Zm3.224,17.871c0.188,0.133 0.43,0.166 0.646,0.085c0.215,-0.082 0.374,-0.267 0.422,-0.491c0.507,-2.382 1.737,-8.412 2.198,-10.578c0.035,-0.164 -0.023,-0.334 -0.151,-0.443c-0.129,-0.109 -0.307,-0.14 -0.465,-0.082c-2.446,0.906 -9.979,3.732 -13.058,4.871c-0.195,0.073 -0.322,0.26 -0.316,0.467c0.007,0.206 0.146,0.385 0.346,0.445c1.381,0.413 3.193,0.988 3.193,0.988c0,0 0.847,2.558 1.288,3.858c0.056,0.164 0.184,0.292 0.352,0.336c0.169,0.044 0.348,-0.002 0.474,-0.121c0.709,-0.669 1.805,-1.704 1.805,-1.704c0,0 2.084,1.527 3.266,2.369Zm-6.423,-5.062l0.98,3.231l0.218,-2.046c0,0 3.783,-3.413 5.941,-5.358c0.063,-0.057 0.071,-0.153 0.019,-0.22c-0.052,-0.067 -0.148,-0.083 -0.219,-0.037c-2.5,1.596 -6.939,4.43 -6.939,4.43Z"/></symbol>
    <symbol id="whatsapp" xmlns="http://www.w3.org/2000/svg" width="35" height="35" viewBox="0 0 24 24"><path d="M12.031 6.172c-3.181 0-5.767 2.586-5.768 5.766-.001 1.298.38 2.27 1.019 3.287l-.582 2.128 2.182-.573c.978.58 1.911.928 3.145.929 3.178 0 5.767-2.587 5.768-5.766.001-3.187-2.575-5.77-5.764-5.771zm3.392 8.244c-.144.405-.837.774-1.17.824-.299.045-.677.063-1.092-.069-.252-.08-.575-.187-.988-.365-1.739-.751-2.874-2.502-2.961-2.617-.087-.116-.708-.94-.708-1.793s.448-1.273.607-1.446c.159-.173.346-.217.462-.217l.332.006c.106.005.249-.04.39.298.144.347.491 1.2.534 1.287.043.087.072.188.014.304-.058.116-.087.188-.173.289l-.26.304c-.087.086-.177.18-.076.354.101.174.449.741.964 1.201.662.591 1.221.774 1.394.86s.274.072.376-.043c.101-.116.433-.506.549-.68.116-.173.231-.145.39-.087s1.011.477 1.184.564.289.13.332.202c.045.072.045.419-.1.824zm-3.423-14.416c-6.627 0-12 5.373-12 12s5.373 12 12 12 12-5.373 12-12-5.373-12-12-12zm.029 18.88c-1.161 0-2.305-.292-3.318-.844l-3.677.964.984-3.595c-.607-1.052-.927-2.246-.926-3.468.001-3.825 3.113-6.937 6.937-6.937 1.856.001 3.598.723 4.907 2.034 1.31 1.311 2.031 3.054 2.03 4.908-.001 3.825-3.113 6.938-6.937 6.938z"/></symbol>
    <symbol id="viber" width="35" height="35" viewBox="0 0 24 24" xmlns="http://www.w3.org/2000/svg" fill-rule="evenodd" clip-rule="evenodd"><path d="M12 0c-6.626 0-12 5.372-12 12 0 6.627 5.374 12 12 12 6.627 0 12-5.373 12-12 0-6.628-5.373-12-12-12zm5.42 7.058c-.367-.338-1.85-1.414-5.152-1.429 0 0-3.894-.235-5.792 1.507-1.056 1.057-1.428 2.602-1.467 4.52-.039 1.918-.09 5.51 3.373 6.485l.003.001-.002 1.486s-.021.602.375.725c.479.149.76-.309 1.218-.802.251-.27.598-.668.86-.972 2.368.198 4.19-.256 4.397-.324.478-.155 3.185-.502 3.625-4.094.454-3.704-.22-6.047-1.438-7.103zm.401 6.835c-.372 3-2.566 3.19-2.971 3.319-.172.056-1.773.454-3.785.322 0 0-1.499 1.809-1.967 2.279-.073.074-.159.104-.217.09-.08-.02-.102-.115-.101-.255l.012-2.47c-2.929-.814-2.758-3.873-2.725-5.474.033-1.601.334-2.913 1.227-3.796 1.606-1.454 4.913-1.237 4.913-1.237 2.794.013 4.132.854 4.442 1.136 1.031.882 1.556 2.993 1.172 6.086zm-5.272.181s.262.023.403-.152l.276-.347c.132-.172.454-.282.768-.107.416.235.954.604 1.322.948.203.171.25.423.112.689l-.002.006c-.142.251-.332.486-.573.706l-.005.004c-.271.226-.582.357-.915.249l-.006-.009c-.598-.169-2.032-.901-2.946-1.63-1.496-1.18-2.559-3.126-2.853-4.169l-.009-.006c-.108-.334.024-.646.249-.915l.004-.005c.219-.241.455-.431.706-.574l.005-.001c.266-.138.518-.091.69.112.226.233.65.794.947 1.322.175.314.066.635-.106.768l-.347.275c-.175.142-.152.404-.152.404s.513 1.942 2.432 2.432zm3.019-1.61c.103-.001.186-.085.186-.188-.01-1.229-.386-2.215-1.118-2.93-.731-.712-1.652-1.077-2.735-1.085h-.002c-.102 0-.186.083-.187.185 0 .103.083.188.186.188.984.007 1.817.337 2.477.98.658.642.997 1.539 1.005 2.665.001.102.084.185.187.185h.001zm-.982-.384h-.004c-.104-.002-.185-.087-.183-.191.015-.638-.168-1.155-.557-1.579-.388-.424-.92-.656-1.627-.708-.103-.007-.181-.097-.173-.199.008-.103.097-.18.2-.173.796.058 1.427.337 1.875.827.451.493.672 1.112.655 1.841-.002.102-.085.182-.186.182zm-.958-.321c-.099 0-.182-.077-.187-.177-.031-.634-.33-.944-.939-.977-.103-.006-.182-.094-.177-.197.006-.103.094-.182.197-.176.804.043 1.251.504 1.292 1.331.005.103-.074.191-.177.196h-.009z"/></symbol>
    <symbol id="cart" xmlns="http://www.w3.org/2000/svg" viewBox="0 0 446.843 446.843" xml:space="preserve"> <g> <path d="M444.09,93.103c-2.698-3.699-7.006-5.888-11.584-5.888H109.92c-0.625,0-1.249,0.038-1.85,0.119l-13.276-38.27 c-1.376-3.958-4.406-7.113-8.3-8.646L19.586,14.134c-7.374-2.887-15.695,0.735-18.591,8.1c-2.891,7.369,0.73,15.695,8.1,18.591 l60.768,23.872l74.381,214.399c-3.283,1.144-6.065,3.663-7.332,7.187l-21.506,59.739c-1.318,3.663-0.775,7.733,1.468,10.916 c2.24,3.183,5.883,5.078,9.773,5.078h11.044c-6.844,7.616-11.044,17.646-11.044,28.675c0,23.718,19.298,43.012,43.012,43.012 s43.012-19.294,43.012-43.012c0-11.029-4.2-21.059-11.044-28.675h93.776c-6.847,7.616-11.048,17.646-11.048,28.675 c0,23.718,19.294,43.012,43.013,43.012c23.718,0,43.012-19.294,43.012-43.012c0-11.029-4.2-21.059-11.043-28.675h13.433 c6.599,0,11.947-5.349,11.947-11.948c0-6.599-5.349-11.947-11.947-11.947H143.647l13.319-36.996 c1.72,0.724,3.578,1.152,5.523,1.152h210.278c6.234,0,11.751-4.027,13.65-9.959l59.739-186.387 C447.557,101.567,446.788,96.802,444.09,93.103z M169.659,409.807c-10.543,0-19.116-8.573-19.116-19.116 s8.573-19.117,19.116-19.117s19.116,8.574,19.116,19.117S180.202,409.807,169.659,409.807z M327.367,409.807 c-10.543,0-19.117-8.573-19.117-19.116s8.574-19.117,19.117-19.117c10.542,0,19.116,8.574,19.116,19.117 S337.909,409.807,327.367,409.807z M402.52,148.149h-73.161V115.89h83.499L402.52,148.149z M381.453,213.861h-52.094v-37.038 h63.967L381.453,213.861z M234.571,213.861v-37.038h66.113v37.038H234.571z M300.684,242.538v31.064h-66.113v-31.064H300.684z M139.115,176.823h66.784v37.038h-53.933L139.115,176.823z M234.571,148.149V115.89h66.113v32.259H234.571z M205.898,115.89v32.259 h-76.734l-11.191-32.259H205.898z M161.916,242.538h43.982v31.064h-33.206L161.916,242.538z M329.359,273.603v-31.064h42.909 l-9.955,31.064H329.359z"/> </g> </symbol>
    <symbol id="compare" enable-background="new 0 0 512 512" viewBox="0 0 512 512" xmlns="http://www.w3.org/2000/svg"><g><path d="m512 120.39v-16.17c0-8.591-6.989-15.58-15.58-15.58h-216.757v-16.805c9.798-7.262 16.162-18.906 16.162-32.01 0-21.959-17.865-39.825-39.825-39.825-21.959 0-39.825 17.866-39.825 39.825 0 13.105 6.366 24.75 16.165 32.012v16.806h-216.758c-8.592 0-15.582 6.989-15.582 15.581v16.163c0 8.591 6.99 15.581 15.582 15.581h47.688c-1.06 2.685-1.65 5.605-1.65 8.663 0 9.302 5.398 17.365 13.224 21.229l-74.204 167.922.003.001c-.411.927-.643 1.951-.643 3.03v22.224c0 9.706 7.896 17.602 17.602 17.602h2.602v14.724c0 9.706 7.896 17.602 17.602 17.602h94.956c9.706 0 17.602-7.896 17.602-17.602v-14.724h2.602c9.706 0 17.602-7.896 17.602-17.602v-22.224c0-1.079-.232-2.103-.643-3.03l.003-.001-74.207-167.923c7.826-3.864 13.224-11.926 13.224-21.229 0-3.057-.589-5.978-1.65-8.663h125.045v42.812c0 4.142 3.358 7.5 7.5 7.5s7.5-3.358 7.5-7.5v-100.088c2.79.621 5.686.96 8.66.96 2.976 0 5.872-.338 8.663-.96v185.972h-17.323v-50.883c0-4.142-3.358-7.5-7.5-7.5s-7.5 3.358-7.5 7.5v50.883h-.584c-8.591 0-15.581 6.99-15.581 15.582v16.163c0 8.591 6.99 15.581 15.581 15.581h.582v120.361h-57.15c-15.275 0-27.703 12.428-27.703 27.703v4.617h-12.705c-15.273 0-27.7 12.431-27.7 27.71v4.62h-8.666c-4.142 0-7.5 3.358-7.5 7.5s3.358 7.5 7.5 7.5h198.346c4.143 0 7.5-3.358 7.5-7.5s-3.357-7.5-7.5-7.5h-174.68v-4.62c0-7.008 5.697-12.71 12.7-12.71h242.44c7.003 0 12.7 5.702 12.7 12.71v4.62h-58.16c-4.143 0-7.5 3.358-7.5 7.5s3.357 7.5 7.5 7.5h81.825c4.143 0 7.5-3.358 7.5-7.5s-3.357-7.5-7.5-7.5h-8.665v-4.62c0-15.279-12.426-27.71-27.7-27.71h-12.703v-4.617c0-15.275-12.428-27.703-27.703-27.703h-57.15v-120.362h.581c8.592 0 15.581-6.99 15.581-15.581v-16.163c0-8.592-6.989-15.582-15.581-15.582h-.581v-128.692h48.356c4.143 0 7.5-3.358 7.5-7.5s-3.357-7.5-7.5-7.5h-48.356v-17.33h216.756c.32 0 .58.26.58.58v16.17c0 .32-.26.58-.58.58h-133.4c-4.143 0-7.5 3.358-7.5 7.5s3.357 7.5 7.5 7.5h41.684c-1.06 2.684-1.649 5.604-1.649 8.66 0 9.302 5.398 17.365 13.224 21.229l-74.205 167.923.003.001c-.41.927-.643 1.951-.643 3.03v22.224c0 9.706 7.896 17.602 17.602 17.602h2.603v14.724c0 9.706 7.896 17.602 17.602 17.602h94.955c9.705 0 17.602-7.896 17.602-17.602v-14.724h2.602c9.705 0 17.602-7.896 17.602-17.602v-22.224c0-1.079-.232-2.103-.643-3.03l.003-.001-74.204-167.923c7.826-3.864 13.224-11.926 13.224-21.229 0-3.056-.589-5.976-1.649-8.66h47.689c8.589 0 15.578-6.989 15.578-15.58zm-492.986 208.923 58.769-132.992v132.992zm73.769-132.992 58.769 132.992h-58.769zm42.579 195.041c0 1.435-1.167 2.602-2.602 2.602h-94.955c-1.435 0-2.602-1.167-2.602-2.602v-14.724h100.159zm20.203-32.325c0 1.435-1.167 2.602-2.602 2.602h-135.361c-1.435 0-2.602-1.167-2.602-2.602v-14.724h140.565zm-61.62-214.407c0 4.776-3.886 8.663-8.663 8.663s-8.663-3.886-8.663-8.663 3.886-8.663 8.663-8.663 8.663 3.887 8.663 8.663zm-78.363-23.662c-.321 0-.582-.261-.582-.581v-16.163c0-.321.261-.582.582-.582h216.758v17.325h-216.758zm215.593-81.143c0-13.688 11.137-24.825 24.825-24.825s24.825 11.137 24.825 24.825-11.137 24.825-24.825 24.825-24.825-11.136-24.825-24.825zm118.342 420.228v4.617h-187.033v-4.617c0-7.004 5.699-12.703 12.703-12.703h161.626c7.005 0 12.704 5.698 12.704 12.703zm-84.854-27.703h-17.326v-120.362h17.326zm16.162-152.106v16.163c0 .32-.261.581-.581.581h-48.488c-.32 0-.581-.261-.581-.581v-16.163c0-.321.261-.582.581-.582h48.488c.32.001.581.261.581.582zm79.624 49.069 58.769-132.992v132.992zm73.769-132.992 58.768 132.992h-58.768zm42.579 195.041c0 1.435-1.167 2.602-2.602 2.602h-94.955c-1.435 0-2.602-1.167-2.602-2.602v-14.724h100.158v14.724zm20.203-32.325c0 1.435-1.167 2.602-2.602 2.602h-135.362c-1.435 0-2.602-1.167-2.602-2.602v-14.724h140.566zm-61.62-214.407c0 4.776-3.886 8.663-8.662 8.663s-8.663-3.886-8.663-8.663c0-4.76 3.861-8.634 8.615-8.66h.096c4.754.027 8.614 3.9 8.614 8.66z"/></g></symbol>
    <symbol id="favorite" viewBox="0 -28 512.001 512" xmlns="http://www.w3.org/2000/svg"><path d="m256 455.515625c-7.289062 0-14.316406-2.640625-19.792969-7.4375-20.683593-18.085937-40.625-35.082031-58.21875-50.074219l-.089843-.078125c-51.582032-43.957031-96.125-81.917969-127.117188-119.3125-34.644531-41.804687-50.78125-81.441406-50.78125-124.742187 0-42.070313 14.425781-80.882813 40.617188-109.292969 26.503906-28.746094 62.871093-44.578125 102.414062-44.578125 29.554688 0 56.621094 9.34375 80.445312 27.769531 12.023438 9.300781 22.921876 20.683594 32.523438 33.960938 9.605469-13.277344 20.5-24.660157 32.527344-33.960938 23.824218-18.425781 50.890625-27.769531 80.445312-27.769531 39.539063 0 75.910156 15.832031 102.414063 44.578125 26.191406 28.410156 40.613281 67.222656 40.613281 109.292969 0 43.300781-16.132812 82.9375-50.777344 124.738281-30.992187 37.398437-75.53125 75.355469-127.105468 119.308594-17.625 15.015625-37.597657 32.039062-58.328126 50.167969-5.472656 4.789062-12.503906 7.429687-19.789062 7.429687zm-112.96875-425.523437c-31.066406 0-59.605469 12.398437-80.367188 34.914062-21.070312 22.855469-32.675781 54.449219-32.675781 88.964844 0 36.417968 13.535157 68.988281 43.882813 105.605468 29.332031 35.394532 72.960937 72.574219 123.476562 115.625l.09375.078126c17.660156 15.050781 37.679688 32.113281 58.515625 50.332031 20.960938-18.253907 41.011719-35.34375 58.707031-50.417969 50.511719-43.050781 94.136719-80.222656 123.46875-115.617188 30.34375-36.617187 43.878907-69.1875 43.878907-105.605468 0-34.515625-11.605469-66.109375-32.675781-88.964844-20.757813-22.515625-49.300782-34.914062-80.363282-34.914062-22.757812 0-43.652344 7.234374-62.101562 21.5-16.441406 12.71875-27.894532 28.796874-34.609375 40.046874-3.453125 5.785157-9.53125 9.238282-16.261719 9.238282s-12.808594-3.453125-16.261719-9.238282c-6.710937-11.25-18.164062-27.328124-34.609375-40.046874-18.449218-14.265626-39.34375-21.5-62.097656-21.5zm0 0"/></symbol>
    <symbol id="site-map" xmlns="http://www.w3.org/2000/svg" viewBox="0 0 24 24"><path d="M22 18v-7h-9v-5h3v-6h-8v6h3v5h-9v7h-2v6h6v-6h-2v-5h7v5h-2v6h6v-6h-2v-5h7v5h-2v6h6v-6z"/></symbol>
    <symbol id="master-card" viewBox="0 0 33 26" xmlns="http://www.w3.org/2000/svg"> <g> <path d="M32.3255 25.6473V25.7149H32.3871C32.4007 25.7149 32.4124 25.7117 32.4208 25.7064C32.4286 25.7012 32.4331 25.692 32.4331 25.6808C32.4331 25.6696 32.4286 25.6611 32.4208 25.6558C32.4124 25.6499 32.4007 25.6473 32.3871 25.6473H32.3255ZM32.3877 25.6C32.4195 25.6 32.4442 25.6072 32.4617 25.6217C32.4792 25.6361 32.4876 25.6558 32.4876 25.6808C32.4876 25.7018 32.4811 25.7189 32.4669 25.7327C32.4532 25.7458 32.4338 25.7544 32.4078 25.7576L32.4896 25.8529H32.426L32.3501 25.7583H32.3255V25.8529H32.2723V25.6H32.3877ZM32.3715 25.9402C32.4007 25.9402 32.4279 25.9343 32.4526 25.9232C32.4779 25.912 32.4999 25.8969 32.5187 25.8778C32.5376 25.8588 32.5525 25.8365 32.5635 25.8102C32.5739 25.7846 32.5797 25.757 32.5797 25.7274C32.5797 25.6979 32.5739 25.6703 32.5635 25.6447C32.5525 25.6191 32.5376 25.5961 32.5187 25.577C32.4999 25.558 32.4779 25.5429 32.4526 25.5317C32.4279 25.5212 32.4007 25.5159 32.3715 25.5159C32.3423 25.5159 32.3144 25.5212 32.2892 25.5317C32.2632 25.5429 32.2405 25.558 32.2217 25.577C32.2029 25.5961 32.188 25.6191 32.1776 25.6447C32.1666 25.6703 32.1614 25.6979 32.1614 25.7274C32.1614 25.757 32.1666 25.7846 32.1776 25.8102C32.188 25.8365 32.2029 25.8588 32.2217 25.8778C32.2405 25.8969 32.2632 25.912 32.2892 25.9232C32.3144 25.9343 32.3423 25.9402 32.3715 25.9402V25.9402ZM32.3715 25.4549C32.4098 25.4549 32.4448 25.4621 32.4785 25.4765C32.5116 25.4903 32.5402 25.51 32.5654 25.535C32.5901 25.5593 32.6096 25.5882 32.6238 25.6217C32.6381 25.6545 32.6452 25.69 32.6452 25.7274C32.6452 25.7649 32.6381 25.8003 32.6238 25.8332C32.6096 25.866 32.5901 25.8949 32.5654 25.9199C32.5402 25.9442 32.5116 25.9639 32.4785 25.9783C32.4448 25.9928 32.4098 26 32.3715 26C32.3326 26 32.2969 25.9928 32.2632 25.9783C32.2295 25.9639 32.2003 25.9442 32.1756 25.9199C32.151 25.8949 32.1315 25.866 32.1173 25.8332C32.103 25.8003 32.0959 25.7649 32.0959 25.7274C32.0959 25.69 32.103 25.6545 32.1173 25.6217C32.1315 25.5882 32.151 25.5593 32.1756 25.535C32.2003 25.51 32.2295 25.4903 32.2632 25.4765C32.2969 25.4621 32.3326 25.4549 32.3715 25.4549V25.4549ZM7.10202 24.4808C7.10202 23.9987 7.41398 23.6027 7.92377 23.6027C8.41086 23.6027 8.73969 23.9817 8.73969 24.4808C8.73969 24.98 8.41086 25.359 7.92377 25.359C7.41398 25.359 7.10202 24.9629 7.10202 24.4808V24.4808ZM9.29488 24.4808V23.1094H8.70596V23.4424C8.51917 23.1955 8.23574 23.0405 7.85048 23.0405C7.09099 23.0405 6.49559 23.6434 6.49559 24.4808C6.49559 25.3189 7.09099 25.9212 7.85048 25.9212C8.23574 25.9212 8.51917 25.7662 8.70596 25.5192V25.8522H9.29488V24.4808ZM29.196 24.4808C29.196 23.9987 29.508 23.6027 30.0178 23.6027C30.5055 23.6027 30.8337 23.9817 30.8337 24.4808C30.8337 24.98 30.5055 25.359 30.0178 25.359C29.508 25.359 29.196 24.9629 29.196 24.4808ZM31.3896 24.4808V22.008H30.8V23.4424C30.6132 23.1955 30.3298 23.0405 29.9445 23.0405C29.185 23.0405 28.5896 23.6434 28.5896 24.4808C28.5896 25.3189 29.185 25.9212 29.9445 25.9212C30.3298 25.9212 30.6132 25.7662 30.8 25.5192V25.8522H31.3896V24.4808ZM16.6051 23.5744C16.9845 23.5744 17.2284 23.8155 17.2906 24.2398H15.8851C15.9481 23.8437 16.1854 23.5744 16.6051 23.5744ZM16.6168 23.0405C15.8229 23.0405 15.2677 23.6257 15.2677 24.4808C15.2677 25.3531 15.8456 25.9212 16.6563 25.9212C17.0643 25.9212 17.4379 25.8181 17.7667 25.537L17.4781 25.0949C17.2511 25.2782 16.9618 25.382 16.69 25.382C16.3106 25.382 15.9649 25.204 15.88 24.71H17.8912C17.8971 24.6358 17.9029 24.561 17.9029 24.4808C17.8971 23.6257 17.3756 23.0405 16.6168 23.0405ZM23.7278 24.4808C23.7278 23.9987 24.0398 23.6027 24.5496 23.6027C25.0367 23.6027 25.3655 23.9817 25.3655 24.4808C25.3655 24.98 25.0367 25.359 24.5496 25.359C24.0398 25.359 23.7278 24.9629 23.7278 24.4808V24.4808ZM25.9207 24.4808V23.1094H25.3318V23.4424C25.1443 23.1955 24.8616 23.0405 24.4763 23.0405C23.7168 23.0405 23.1214 23.6434 23.1214 24.4808C23.1214 25.3189 23.7168 25.9212 24.4763 25.9212C24.8616 25.9212 25.1443 25.7662 25.3318 25.5192V25.8522H25.9207V24.4808ZM20.4019 24.4808C20.4019 25.313 20.9739 25.9212 21.8469 25.9212C22.2549 25.9212 22.5267 25.8292 22.8211 25.5941L22.5383 25.112C22.3172 25.2729 22.085 25.359 21.8294 25.359C21.3592 25.3531 21.0135 25.0089 21.0135 24.4808C21.0135 23.9528 21.3592 23.6086 21.8294 23.6027C22.085 23.6027 22.3172 23.6887 22.5383 23.8496L22.8211 23.3676C22.5267 23.1324 22.2549 23.0405 21.8469 23.0405C20.9739 23.0405 20.4019 23.6487 20.4019 24.4808V24.4808ZM27.9949 23.0405C27.655 23.0405 27.4338 23.2014 27.2808 23.4424V23.1094H26.6971V25.8522H27.2866V24.3147C27.2866 23.8608 27.4792 23.6086 27.8645 23.6086C27.9838 23.6086 28.1084 23.6257 28.2329 23.6776L28.4145 23.1153C28.2841 23.0635 28.1142 23.0405 27.9949 23.0405V23.0405ZM12.2077 23.3275C11.9242 23.1383 11.5338 23.0405 11.1031 23.0405C10.4169 23.0405 9.97525 23.3735 9.97525 23.9186C9.97525 24.3659 10.3041 24.6417 10.9099 24.7278L11.1881 24.7678C11.5111 24.8138 11.6635 24.8999 11.6635 25.0549C11.6635 25.267 11.4482 25.3879 11.0461 25.3879C10.6381 25.3879 10.3436 25.2558 10.1452 25.1008L9.86758 25.5652C10.1906 25.8062 10.5985 25.9212 11.0402 25.9212C11.8224 25.9212 12.2758 25.5481 12.2758 25.026C12.2758 24.5439 11.9191 24.2917 11.3295 24.2056L11.0519 24.1649C10.797 24.1308 10.5927 24.0795 10.5927 23.8956C10.5927 23.6946 10.7853 23.5744 11.1083 23.5744C11.454 23.5744 11.7887 23.7065 11.9528 23.8096L12.2077 23.3275ZM19.8065 23.0405C19.4666 23.0405 19.2455 23.2014 19.093 23.4424V23.1094H18.5093V25.8522H19.0982V24.3147C19.0982 23.8608 19.2909 23.6086 19.6761 23.6086C19.7955 23.6086 19.92 23.6257 20.0445 23.6776L20.2261 23.1153C20.0958 23.0635 19.9258 23.0405 19.8065 23.0405V23.0405ZM14.7806 23.1094H13.8175V22.2773H13.2221V23.1094H12.6727V23.6546H13.2221V24.9058C13.2221 25.5422 13.4659 25.9212 14.1625 25.9212C14.418 25.9212 14.7125 25.8411 14.8993 25.709L14.7294 25.198C14.5536 25.3012 14.361 25.3531 14.2079 25.3531C13.9135 25.3531 13.8175 25.1692 13.8175 24.894V23.6546H14.7806V23.1094ZM5.97478 25.8522V24.1308C5.97478 23.4825 5.56682 23.0464 4.90915 23.0405C4.56345 23.0346 4.20673 23.1436 3.95703 23.5285C3.77024 23.2244 3.47578 23.0405 3.06198 23.0405C2.77271 23.0405 2.48993 23.1265 2.26876 23.4477V23.1094H1.6792V25.8522H2.27395V24.3317C2.27395 23.8556 2.53468 23.6027 2.93745 23.6027C3.32855 23.6027 3.52637 23.8608 3.52637 24.3258V25.8522H4.12177V24.3317C4.12177 23.8556 4.39352 23.6027 4.78462 23.6027C5.18674 23.6027 5.37937 23.8608 5.37937 24.3258V25.8522H5.97478Z" fill="white"></path> <path d="M32.6887 16.7307V16.3301H32.5856L32.4663 16.6053L32.3476 16.3301H32.2438V16.7307H32.3171V16.4286L32.4286 16.6893H32.5045L32.6161 16.4279V16.7307H32.6887ZM32.0343 16.7307V16.3984H32.1666V16.3307H31.8293V16.3984H31.9617V16.7307H32.0343Z" fill="#F79410"></path> <path d="M20.9622 18.4541H12.0366V2.21021H20.9622V18.4541Z" fill="#FF5F00"></path> <path d="M12.6085 10.3308C12.6085 7.03568 14.132 4.10045 16.5045 2.20887C14.7696 0.825656 12.5799 6.07694e-05 10.2003 6.07694e-05C4.56668 6.07694e-05 0 4.62523 0 10.3308C0 16.0364 4.56668 20.6616 10.2003 20.6616C12.5799 20.6616 14.7696 19.836 16.5045 18.4528C14.132 16.5612 12.6085 13.626 12.6085 10.3308Z" fill="#EB001B"></path> <path d="M33 10.3308C33 16.0364 28.4334 20.6616 22.7998 20.6616C20.4201 20.6616 18.2305 19.836 16.4949 18.4528C18.868 16.5612 20.3916 13.626 20.3916 10.3308C20.3916 7.03568 18.868 4.10045 16.4949 2.20887C18.2305 0.825656 20.4201 6.07694e-05 22.7998 6.07694e-05C28.4334 6.07694e-05 33 4.62523 33 10.3308Z" fill="#F79E1B"></path> </g> <defs> <clipPath id="clip0"> <rect width="33" height="26" fill="white"></rect> </clipPath> </defs> </symbol>
    <symbol id="checkbox" xmlns="http://www.w3.org/2000/svg"  viewBox="0 0 48 48"><path d="M40.6 12.1L17 35.7 7.4 26.1 4.6 29 17 41.3 43.4 14.9z"/></symbol>
    <symbol id="delivery" xmlns="http://www.w3.org/2000/svg" viewBox="0 0 290.626 290.626"> <g> <g> <path d="M154.689,135.938h-1.678C141.85,144.717,127.807,150,112.502,150s-29.348-5.283-40.509-14.063 h-1.678H23.44v75h178.125v-75h-46.876V135.938z"/> <path style="fill:#333333;" d="M276.565,229.688h-4.688v-51.563h-19.194l-4.688-46.875h-41.742V89.063h-23.677 c0.103-1.556,0.239-3.103,0.239-4.688c0-18.891-7.528-36.033-19.692-48.68l3.286-3.286l8.405,8.405l6.628-6.628l-23.437-23.438 l-6.628,6.628l8.405,8.405l-3.595,3.595c-10.861-8.644-24.314-14.1-38.995-15.075V9.375h14.062V0h-37.5v9.375h14.062v4.927 c-14.681,0.975-28.134,6.436-38.995,15.075l-3.595-3.595l8.405-8.405l-6.628-6.628L43.563,34.186l6.628,6.628l8.405-8.405 l3.286,3.286C49.718,48.342,42.19,65.484,42.19,84.375c0,1.584,0.136,3.131,0.239,4.688H18.752v140.625h-4.687 c-7.753,0-14.063,6.309-14.063,14.062s6.309,14.063,14.062,14.063h4.687h9.375h14.062c0,18.089,14.719,32.813,32.812,32.813 s32.812-14.723,32.812-32.813h89.062c0,18.089,14.719,32.813,32.812,32.813s32.812-14.723,32.812-32.813h9.375h4.688 c7.753,0,14.062-6.309,14.062-14.063S284.318,229.688,276.565,229.688z M239.51,140.625l3.75,37.5h-37.008v-37.5H239.51z M112.502,23.438c33.6,0,60.937,27.337,60.937,60.938s-27.337,60.937-60.937,60.937s-60.937-27.338-60.937-60.938 S78.902,23.438,112.502,23.438z M18.752,248.438h-4.687c-2.583,0-4.687-2.1-4.687-4.688s2.105-4.688,4.687-4.688h4.687V248.438z M75.002,281.25c-12.923,0-23.437-10.514-23.437-23.438s10.514-23.437,23.437-23.437s23.437,10.514,23.437,23.438 S87.926,281.25,75.002,281.25z M106.432,248.438C102.386,234.9,89.833,225,75.002,225s-27.384,9.9-31.43,23.438H28.127v-18.75 V98.438h15.478c6.534,32.053,34.941,56.25,68.897,56.25s62.362-24.197,68.897-56.25h15.478v32.813v46.875v9.375v60.938h-90.445 V248.438z M229.689,281.25c-12.923,0-23.437-10.514-23.437-23.438s10.514-23.438,23.437-23.438 c12.923,0,23.437,10.514,23.437,23.438S242.613,281.25,229.689,281.25z M262.503,248.438h-1.383 C257.074,234.9,244.521,225,229.689,225c-9.178,0-17.475,3.797-23.437,9.895V187.5h47.367h8.883v42.188V248.438z M276.565,248.438 h-4.688v-9.375h4.688c2.583,0,4.687,2.1,4.687,4.688S279.147,248.438,276.565,248.438z"/> <path d="M75.002,243.75c-7.753,0-14.062,6.309-14.062,14.063c0,7.753,6.309,14.063,14.062,14.063 s14.062-6.309,14.062-14.063C89.065,250.059,82.755,243.75,75.002,243.75z M75.002,262.5c-2.583,0-4.687-2.1-4.687-4.688 s2.105-4.688,4.687-4.688s4.687,2.1,4.687,4.688C79.689,260.4,77.585,262.5,75.002,262.5z"/> <path d="M229.689,243.75c-7.753,0-14.062,6.309-14.062,14.063c0,7.753,6.309,14.063,14.062,14.063 c7.753,0,14.062-6.309,14.062-14.063C243.752,250.059,237.442,243.75,229.689,243.75z M229.689,262.5 c-2.583,0-4.688-2.1-4.688-4.688s2.105-4.688,4.688-4.688c2.583,0,4.687,2.1,4.687,4.688 C234.376,260.4,232.272,262.5,229.689,262.5z"/> <path d="M98.44,84.375c0,7.753,6.309,14.063,14.062,14.063s14.062-6.309,14.062-14.063 s-6.309-14.063-14.062-14.063c-0.797,0-1.566,0.108-2.33,0.234l-26.925-31.41l-7.12,6.103l25.744,30.033 C99.761,77.733,98.44,80.888,98.44,84.375z M117.19,84.375c0,2.583-2.105,4.688-4.687,4.688c-2.583,0-4.687-2.105-4.687-4.688 s2.105-4.688,4.687-4.688C115.085,79.688,117.19,81.792,117.19,84.375z"/> <path d="M108.227,135.727l0.769-9.342c-21.689-1.791-38.681-20.241-38.681-42.009 c0-10.303,3.797-20.241,10.692-27.994l-7.003-6.23C65.581,59.621,60.94,71.775,60.94,84.375 C60.94,110.986,81.71,133.542,108.227,135.727z"/> </g> </g> </symbol>
    <symbol id="list-land" xmlns="http://www.w3.org/2000/svg" viewBox="0 0 512 512"> <g> <path d="M73.5,392.8v54.9c0,2.8-0.9,4.7-2.8,6.5c-1.9,1.9-3.7,2.8-6.5,2.8H9.3c-2.8,0-4.7-0.9-6.5-2.8 c-1.9-1.9-2.8-3.7-2.8-6.5v-54.9c0-2.8,0.9-4.7,2.8-6.5c1.9-1.9,3.7-2.8,6.5-2.8h54.9c2.8,0,4.7,0.9,6.5,2.8 C72.6,388.2,73.5,391,73.5,392.8z M73.5,283v54.9c0,2.8-0.9,4.7-2.8,6.5c-1.9,1.9-3.7,2.8-6.5,2.8H9.3c-2.8,0-4.7-0.9-6.5-2.8 c-1.9-1.9-2.8-3.7-2.8-6.5V283c0-2.8,0.9-4.7,2.8-6.5c1.9-1.9,3.7-2.8,6.5-2.8h54.9c2.8,0,4.7,0.9,6.5,2.8S73.5,281.1,73.5,283z M73.5,174.1V229c0,2.8-0.9,4.7-2.8,6.5c-1.9,1.9-4.7,1.9-6.5,1.9H9.3c-2.8,0-4.7-0.9-6.5-2.8c-1.9-1.9-2.8-3.7-2.8-6.5v-54.9 c0-2.8,0.9-4.7,2.8-6.5c1.9-1.9,3.7-2.8,6.5-2.8h54.9c2.8,0,4.7,0.9,6.5,2.8C72.6,168.5,73.5,171.3,73.5,174.1z M512,392.8v54.9 c0,2.8-0.9,4.7-2.8,6.5c-1.9,1.9-3.7,2.8-6.5,2.8H119.2c-2.8,0-4.7-0.9-6.5-2.8c-1.9-1.9-2.8-3.7-2.8-6.5v-54.9 c0-2.8,0.9-4.7,2.8-6.5s3.7-2.8,6.5-2.8h384.5c2.8,0,4.7,0.9,6.5,2.8C511.1,388.2,512,391,512,392.8z M73.5,64.2v54.9 c0,2.8-0.9,4.7-2.8,6.5c-1.9,1.9-3.7,2.8-6.5,2.8H9.3c-2.8,0-4.7-0.9-6.5-2.8S0,121.9,0,119.2V64.2c0-2.8,0.9-4.7,2.8-6.5 c1.9-1.9,3.7-2.8,6.5-2.8h54.9c2.8,0,4.7,0.9,6.5,2.8S73.5,61.4,73.5,64.2z M512,283v54.9c0,2.8-0.9,4.7-2.8,6.5 c-1.9,1.9-3.7,2.8-6.5,2.8H119.2c-2.8,0-4.7-0.9-6.5-2.8c-1.9-1.9-2.8-3.7-2.8-6.5V283c0-2.8,0.9-4.7,2.8-6.5s3.7-2.8,6.5-2.8 h384.5c2.8,0,4.7,0.9,6.5,2.8C512,278.3,512,281.1,512,283z M512,174.1V229c0,2.8-0.9,4.7-2.8,6.5c-1.9,1.9-3.7,1.9-6.5,1.9H119.2 c-2.8,0-4.7-0.9-6.5-2.8c-1.9-1.9-2.8-3.7-2.8-6.5v-54.9c0-2.8,0.9-4.7,2.8-6.5c1.9-1.9,3.7-2.8,6.5-2.8h384.5 c2.8,0,4.7,0.9,6.5,2.8C512,168.5,512,171.3,512,174.1z M512,64.2v54.9c0,2.8-0.9,4.7-2.8,6.5c-1.9,1.9-3.7,2.8-6.5,2.8H119.2 c-2.8,0-4.7-0.9-6.5-2.8s-2.8-3.7-2.8-6.5V64.2c0-2.8,0.9-4.7,2.8-6.5s3.7-2.8,6.5-2.8h384.5c2.8,0,4.7,0.9,6.5,2.8 C512,59.6,512,61.4,512,64.2z"/> </g> </symbol>
    <symbol id="list-square" xmlns="http://www.w3.org/2000/svg" viewBox="0 0 512 512"> <g> <path d="M219.6,7c-3.3-2.2-6.9-4-10.8-5.2c-3.9-1.2-8-1.9-12.2-1.9H41.1V0c-5.6,0-11,1.2-15.9,3.2C17.7,6.4,11.5,11.6,7,18.1 C4.8,21.4,3,25,1.8,28.9C0.6,32.8,0,36.9,0,41.1v155.4c0,5.6,1.2,11.1,3.2,16c3.1,7.4,8.3,13.7,14.9,18.1c3.3,2.2,6.9,4,10.8,5.2 c3.9,1.2,8,1.9,12.2,1.9h155.4c5.6,0,11.1-1.2,16-3.2c7.4-3.1,13.7-8.3,18.1-14.9c2.2-3.3,4-6.9,5.2-10.8c1.2-3.9,1.9-8,1.9-12.2 V41.1c0-5.6-1.2-11.1-3.2-16C231.4,17.7,226.2,11.4,219.6,7z M201.1,196.7c0,0.7-0.1,1.2-0.4,1.8c-0.3,0.8-0.9,1.5-1.7,2 c-0.4,0.2-0.8,0.4-1.2,0.6c-0.4,0.1-0.9,0.2-1.4,0.2H41.1c-0.7,0-1.2-0.1-1.8-0.4c-0.8-0.3-1.5-0.9-2-1.7c-0.2-0.4-0.4-0.8-0.6-1.2 c-0.1-0.4-0.2-0.9-0.2-1.4V41.1c0-0.7,0.1-1.2,0.4-1.8c0.3-0.8,0.9-1.5,1.7-2c0.4-0.2,0.8-0.4,1.2-0.6c0.4-0.1,0.8-0.2,1.3-0.2v0.1 h155.4c0.7,0,1.2,0.1,1.8,0.4c0.8,0.3,1.5,0.9,2,1.7c0.2,0.4,0.4,0.8,0.6,1.2c0.1,0.4,0.2,0.9,0.2,1.4V196.7z"/> <path d="M508.8,25.1c-3.1-7.4-8.3-13.7-14.9-18.1c-3.3-2.2-6.9-4-10.8-5.2c-3.9-1.2-8-1.9-12.2-1.9H315.4V0c-5.6,0-11,1.2-15.9,3.2 c-7.4,3.1-13.7,8.3-18.1,14.9c-2.2,3.3-4,6.9-5.2,10.8c-1.2,3.9-1.9,8-1.9,12.2v155.4c0,5.6,1.2,11.1,3.2,16 c3.1,7.4,8.3,13.7,14.9,18.1c3.3,2.2,6.9,4,10.8,5.2c3.9,1.2,8,1.9,12.2,1.9h155.4c5.6,0,11.1-1.2,16-3.2 c7.4-3.1,13.7-8.3,18.1-14.9c2.2-3.3,4-6.9,5.2-10.8c1.2-3.9,1.9-8,1.9-12.2V41.1C512,35.5,510.8,30,508.8,25.1z M475.4,196.7 c0,0.7-0.1,1.2-0.4,1.8c-0.3,0.8-0.9,1.5-1.7,2c-0.4,0.2-0.8,0.4-1.2,0.6c-0.4,0.1-0.9,0.2-1.4,0.2H315.4c-0.7,0-1.2-0.1-1.8-0.4 c-0.8-0.3-1.5-0.9-2-1.7c-0.2-0.4-0.4-0.8-0.6-1.2c-0.1-0.4-0.2-0.9-0.2-1.4V41.1c0-0.7,0.1-1.2,0.4-1.8c0.3-0.8,0.9-1.5,1.7-2 c0.4-0.2,0.8-0.4,1.2-0.6c0.4-0.1,0.8-0.2,1.3-0.2v0.1h155.4c0.7,0,1.2,0.1,1.8,0.4c0.8,0.3,1.5,0.9,2,1.7c0.2,0.4,0.4,0.8,0.6,1.2 c0.1,0.4,0.2,0.9,0.2,1.4V196.7z"/> <path d="M219.6,281.3c-3.3-2.2-6.9-4-10.8-5.2c-3.9-1.2-8-1.9-12.2-1.9H41.1v0.1c-5.6,0-11,1.2-15.9,3.2 c-7.4,3.1-13.7,8.3-18.1,14.9c-2.2,3.3-4,6.9-5.2,10.8c-1.2,3.9-1.9,8-1.9,12.2v155.4c0,5.6,1.2,11.1,3.2,16 c3.1,7.4,8.3,13.7,14.9,18.1c3.3,2.2,6.9,4,10.8,5.2c3.9,1.2,8,1.9,12.2,1.9h155.4c5.6,0,11.1-1.2,16-3.2 c7.4-3.1,13.7-8.3,18.1-14.9c2.2-3.3,4-6.9,5.2-10.8c1.2-3.9,1.9-8,1.9-12.2V315.4c0-5.6-1.2-11.1-3.2-16 C231.4,292,226.2,285.7,219.6,281.3z M201.1,471c0,0.7-0.1,1.2-0.4,1.8c-0.3,0.8-0.9,1.5-1.7,2c-0.4,0.2-0.8,0.4-1.2,0.6 c-0.4,0.1-0.9,0.2-1.4,0.2H41.1c-0.7,0-1.2-0.1-1.8-0.4c-0.8-0.3-1.5-0.9-2-1.7c-0.2-0.4-0.4-0.8-0.6-1.2c-0.1-0.4-0.2-0.9-0.2-1.4 V315.4c0-0.7,0.1-1.2,0.4-1.8c0.3-0.8,0.9-1.5,1.7-2c0.4-0.2,0.8-0.4,1.2-0.6c0.4-0.1,0.8-0.2,1.3-0.2v0.1h155.4 c0.7,0,1.2,0.1,1.8,0.4c0.8,0.3,1.5,0.9,2,1.7c0.2,0.4,0.4,0.8,0.6,1.2c0.1,0.4,0.2,0.9,0.2,1.4V471z"/> <path d="M493.9,281.3c-3.3-2.2-6.9-4-10.8-5.2c-3.9-1.2-8-1.9-12.2-1.9H315.4v0.1c-5.6,0-11,1.2-15.9,3.2 c-7.4,3.1-13.7,8.3-18.1,14.9c-2.2,3.3-4,6.9-5.2,10.8c-1.2,3.9-1.9,8-1.9,12.2v155.4c0,5.6,1.2,11.1,3.2,16 c3.1,7.4,8.3,13.7,14.9,18.1c3.3,2.2,6.9,4,10.8,5.2c3.9,1.2,8,1.9,12.2,1.9h155.4c5.6,0,11.1-1.2,16-3.2 c7.4-3.1,13.7-8.3,18.1-14.9c2.2-3.3,4-6.9,5.2-10.8c1.2-3.9,1.9-8,1.9-12.2V315.4c0-5.6-1.2-11.1-3.2-16 C505.7,292,500.5,285.7,493.9,281.3z M475.4,471c0,0.7-0.1,1.2-0.4,1.8c-0.3,0.8-0.9,1.5-1.7,2c-0.4,0.2-0.8,0.4-1.2,0.6 c-0.4,0.1-0.9,0.2-1.4,0.2H315.4c-0.7,0-1.2-0.1-1.8-0.4c-0.8-0.3-1.5-0.9-2-1.7c-0.2-0.4-0.4-0.8-0.6-1.2 c-0.1-0.4-0.2-0.9-0.2-1.4V315.4c0-0.7,0.1-1.2,0.4-1.8c0.3-0.8,0.9-1.5,1.7-2c0.4-0.2,0.8-0.4,1.2-0.6c0.4-0.1,0.8-0.2,1.3-0.2 v0.1h155.4c0.7,0,1.2,0.1,1.8,0.4c0.8,0.3,1.5,0.9,2,1.7c0.2,0.4,0.4,0.8,0.6,1.2c0.1,0.4,0.2,0.9,0.2,1.4V471z"/> </g> </symbol>
    <symbol id="arrow-swipe" xmlns="http://www.w3.org/2000/svg" viewBox="0 0 490 490"> <path d="M413.476,398.302L258.215,245L413.476,91.69L324.619,0L76.524,245l248.094,245L413.476,398.302z M120.086,245L324.14,43.502 l46.252,47.71L214.653,245l155.739,153.781l-46.252,47.717L120.086,245z"/> </symbol>
    <symbol id="sort-arrow-up" xmlns="http://www.w3.org/2000/svg" xmlns:xlink="http://www.w3.org/1999/xlink" x="0px" y="0px" viewBox="0 0 32 32" xml:space="preserve"> <polygon style="stroke:#222;stroke-width:2;stroke-miterlimit:10;" points="16,5 24,13 8,13 "/> </symbol>
    <symbol id="sort-arrow-down" xmlns="http://www.w3.org/2000/svg" xmlns:xlink="http://www.w3.org/1999/xlink" x="0px" y="0px" viewBox="0 0 32 32" xml:space="preserve"> <polygon style="stroke:#222;stroke-width:2;stroke-miterlimit:10;" points="16,5 24,13 8,13 "/> <polygon style="stroke:#222;stroke-width:2;stroke-miterlimit:10;" points="16,27 8,19 24,19 "/> </symbol>
    <symbol id="filter" xmlns="http://www.w3.org/2000/svg" viewBox="0 0 512 512" style="enable-background:new 0 0 512 512;" xml:space="preserve"> <g> <g> <polygon points="222.949,302.964 222.949,512 289.051,467.933 289.051,302.964 		"/> </g> </g> <g> <g> <rect x="2.612" width="506.776" height="49.576"/> </g> </g> <g> <g> <polygon points="19.137,82.627 206.424,269.913 305.576,269.913 492.863,82.627 		"/> </g> </g> </symbol>
    <symbol id="account" viewBox="0 0 16 16" xmlns="http://www.w3.org/2000/svg"><path d="M16 7.992C16 3.58 12.416 0 8 0S0 3.58 0 7.992c0 2.43 1.104 4.62 2.832 6.09.016.016.032.016.032.032.144.112.288.224.448.336.08.048.144.111.224.175A7.98 7.98 0 0 0 8.016 16a7.98 7.98 0 0 0 4.48-1.375c.08-.048.144-.111.224-.16.144-.111.304-.223.448-.335.016-.016.032-.016.032-.032 1.696-1.487 2.8-3.676 2.8-6.106zm-8 7.001c-1.504 0-2.88-.48-4.016-1.279.016-.128.048-.255.08-.383a4.17 4.17 0 0 1 .416-.991c.176-.304.384-.576.64-.816.24-.24.528-.463.816-.639.304-.176.624-.304.976-.4A4.15 4.15 0 0 1 8 10.342a4.185 4.185 0 0 1 2.928 1.166c.368.368.656.8.864 1.295.112.288.192.592.24.911A7.03 7.03 0 0 1 8 14.993zm-2.448-7.4a2.49 2.49 0 0 1-.208-1.024c0-.351.064-.703.208-1.023.144-.32.336-.607.576-.847.24-.24.528-.431.848-.575.32-.144.672-.208 1.024-.208.368 0 .704.064 1.024.208.32.144.608.336.848.575.24.24.432.528.576.847.144.32.208.672.208 1.023 0 .368-.064.704-.208 1.023a2.84 2.84 0 0 1-.576.848 2.84 2.84 0 0 1-.848.575 2.715 2.715 0 0 1-2.064 0 2.84 2.84 0 0 1-.848-.575 2.526 2.526 0 0 1-.56-.848zm7.424 5.306c0-.032-.016-.048-.016-.08a5.22 5.22 0 0 0-.688-1.406 4.883 4.883 0 0 0-1.088-1.135 5.207 5.207 0 0 0-1.04-.608 2.82 2.82 0 0 0 .464-.383 4.2 4.2 0 0 0 .624-.784 3.624 3.624 0 0 0 .528-1.934 3.71 3.71 0 0 0-.288-1.47 3.799 3.799 0 0 0-.816-1.199 3.845 3.845 0 0 0-1.2-.8 3.72 3.72 0 0 0-1.472-.287 3.72 3.72 0 0 0-1.472.288 3.631 3.631 0 0 0-1.2.815 3.84 3.84 0 0 0-.8 1.199 3.71 3.71 0 0 0-.288 1.47c0 .352.048.688.144 1.007.096.336.224.64.4.927.16.288.384.544.624.784.144.144.304.271.48.383a5.12 5.12 0 0 0-1.04.624c-.416.32-.784.703-1.088 1.119a4.999 4.999 0 0 0-.688 1.406c-.016.032-.016.064-.016.08C1.776 11.636.992 9.91.992 7.992.992 4.14 4.144.991 8 .991s7.008 3.149 7.008 7.001a6.96 6.96 0 0 1-2.032 4.907z"/> </symbol>
    <symbol id="logout" xmlns="http://www.w3.org/2000/svg" xmlns:xlink="http://www.w3.org/1999/xlink" x="0px" y="0px" viewBox="0 0 490.3 490.3"> <g> <g> <path d="M0,121.05v248.2c0,34.2,27.9,62.1,62.1,62.1h200.6c34.2,0,62.1-27.9,62.1-62.1v-40.2c0-6.8-5.5-12.3-12.3-12.3 s-12.3,5.5-12.3,12.3v40.2c0,20.7-16.9,37.6-37.6,37.6H62.1c-20.7,0-37.6-16.9-37.6-37.6v-248.2c0-20.7,16.9-37.6,37.6-37.6h200.6 c20.7,0,37.6,16.9,37.6,37.6v40.2c0,6.8,5.5,12.3,12.3,12.3s12.3-5.5,12.3-12.3v-40.2c0-34.2-27.9-62.1-62.1-62.1H62.1 C27.9,58.95,0,86.75,0,121.05z"/> <path d="M385.4,337.65c2.4,2.4,5.5,3.6,8.7,3.6s6.3-1.2,8.7-3.6l83.9-83.9c4.8-4.8,4.8-12.5,0-17.3l-83.9-83.9 c-4.8-4.8-12.5-4.8-17.3,0s-4.8,12.5,0,17.3l63,63H218.6c-6.8,0-12.3,5.5-12.3,12.3c0,6.8,5.5,12.3,12.3,12.3h229.8l-63,63 C380.6,325.15,380.6,332.95,385.4,337.65z"/> </g> </g> </symbol>
    <symbol id="arrow-popup" viewBox="0 0 24 24" xmlns="http://www.w3.org/2000/svg"><g data-name="Layer 2"><g data-name="arrow-downward"><rect transform="rotate(-90 12 12)" opacity="0"/><path d="M12 17a1.72 1.72 0 0 1-1.33-.64l-4.21-5.1a2.1 2.1 0 0 1-.26-2.21A1.76 1.76 0 0 1 7.79 8h8.42a1.76 1.76 0 0 1 1.59 1.05 2.1 2.1 0 0 1-.26 2.21l-4.21 5.1A1.72 1.72 0 0 1 12 17z"/></g></g></symbol>
    <symbol id="arrow-down" viewBox="0 0 24 24" xmlns="http://www.w3.org/2000/svg"> <path d="M18.5303 9.46967C18.8232 9.76256 18.8232 10.2374 18.5303 10.5303L12.5303 16.5303C12.2374 16.8232 11.7626 16.8232 11.4697 16.5303L5.46967 10.5303C5.17678 10.2374 5.17678 9.76256 5.46967 9.46967C5.76256 9.17678 6.23744 9.17678 6.53033 9.46967L12 14.9393L17.4697 9.46967C17.7626 9.17678 18.2374 9.17678 18.5303 9.46967Z"/> </symbol>
</svg>
